<svg fill="#a93f55" id="Layer_1" data-name="Layer 1" xmlns="http://www.w3.org/2000/svg"
    viewBox="0 0 100 100">
    <title>download-file</title>
    <path
        d="M 68.4816 39.1376 a 6.1742 6.1742 90 1 1 8.6486 8.8088 L 53.6749 71.0735 a 6.1822 6.1822 90 0 1 -8.6647 0 L 21.8911 48.2427 a 6.1742 6.1742 90 1 1 8.6567 -8.8088 L 43.2725 52.0465 l 0.1282 -44.4204 a 6.1822 6.1822 90 0 1 12.3563 0.1041 l -0.1201 44.044 L 68.4816 39.1376 Z M 0.75 92.3747 L 0.8301 68.2066 a 6.1822 6.1822 90 1 1 12.3563 0.1121 l -0.0561 17.6176 q 36.8368 0.0721 73.6016 0 l 0.0561 -17.7137 a 6.1822 6.1822 90 1 1 12.3643 0.1121 l -0.0801 24.024 h -0.0721 a 6.1742 6.1742 90 0 1 -6.1181 5.8939 q -43.0269 0.0801 -85.9899 0 A 6.1662 6.1662 90 0 1 0.75 92.3747 Z" />
</svg>