<?xml version="1.0" encoding="utf-8"?>
<svg version="1.1" id="Layer_1" xmlns="http://www.w3.org/2000/svg"
    xmlns:xlink="http://www.w3.org/1999/xlink" x="0px" y="0px" viewBox="0 0 122.88 103.38"
    style="enable-background:new 0 0 100 100" xml:space="preserve"><style type="text/css">.st0{fill-rule:evenodd;clip-rule:evenodd;}</style><g><path class="st0" d="M 22.3957 83.729 h 26.3063 l 7.3681 -7.3519 c 1.1335 -1.1335 1.1417 -2.9958 0.0082 -4.1294 l -21.8775 -21.9422 c -1.1335 -1.1335 -2.9958 -1.1417 -4.1294 -0.0082 L 11.5783 68.75 c -1.1417 1.1335 -1.1417 2.9958 -0.0082 4.1294 L 22.3957 83.729 L 22.3957 83.729 z M 57.5113 83.729 h 41.9736 v 7.9753 H 49.5199 H 40.7105 h -10.3638 H 20.8087 h -0.2834 L 0.8502 71.9726 c -1.1335 -1.1335 -1.1335 -2.9958 0.0082 -4.1294 L 60.0052 8.8502 c 1.1417 -1.1335 2.9958 -1.1335 4.1294 0.0082 l 32.0793 32.1603 c 1.1335 1.1335 1.1335 2.9958 -0.0082 4.1294 L 57.5113 83.729 L 57.5113 83.729 z M 2 104"/></g></svg>