<svg id="Layer_1" data-name="Layer 1" xmlns="http://www.w3.org/2000/svg" viewBox="0 0 100 100">
    <title>leave</title>
    <path fill="#a93f55"
        d="M 31.88 55.928 H 52.768 a 5.784 5.784 90 0 0 0 -11.56 H 31.88 l 6.784 -7.568 a 5.8 5.8 90 0 0 -0.408 -8.128 a 5.648 5.648 90 0 0 -8.04 0.4 L 14.84 46.232 a 5.816 5.816 90 0 0 -0.048 7.776 L 30.216 71.216 a 5.64 5.64 90 0 0 8.04 0.408 a 5.8 5.8 90 0 0 0.408 -8.128 l -6.784 -7.568 Z M 50.648 87.856 a 5.776 5.776 90 0 0 2.264 11.336 l 2.696 -0.544 C 74.728 94.856 85 92.704 85 65.16 V 33.504 C 85 7.12 73.976 5.056 55.72 1.648 L 52.864 1.104 A 5.768 5.768 90 0 0 50.696 12.44 L 53.6 13 c 12.368 2.312 19.84 3.704 19.84 20.52 V 65.16 c 0 18.088 -7.016 19.568 -20.08 22.16 l -2.712 0.536 Z M 89 65" />
</svg>