<?xml version="1.0" encoding="utf-8"?>
<svg version="1.1" id="Layer_1" xmlns="http://www.w3.org/2000/svg"
    xmlns:xlink="http://www.w3.org/1999/xlink" x="0px" y="0px" viewBox="0 0 100 100"
    style="enable-background:new 0 0 108.2 122.88" xml:space="preserve"><style type="text/css">.st0{fill-rule:evenodd;clip-rule:evenodd;}</style><g><path class="st0" d="M 81.5269 59.4261 c 2.9427 12.7466 11.7632 19.1122 11.7632 25.4855 c 0 6.3733 -2.9427 12.7466 -11.7632 12.7466 c -8.8205 0 -11.7632 -6.3733 -11.7632 -12.7466 C 69.7638 78.5384 78.592 72.1728 81.5269 59.4261 L 81.5269 59.4261 z M 18.5063 7.0767 l 4.1198 -4.1198 c 0.6195 -0.6195 1.6262 -0.6195 2.2458 0 l 12.5376 12.5376 l 6.4507 -6.4507 c 1.7424 -1.7424 4.6 -1.7424 6.3424 0 l 33.0514 33.0514 c 1.7424 1.7424 1.7424 4.6 0 6.3424 l -33.0514 33.0514 c -1.7424 1.7424 -4.6 1.7424 -6.3424 0 L 10.8088 48.4451 c -1.7424 -1.7424 -1.7424 -4.6 0 -6.3424 l 20.2351 -20.2429 L 18.5063 9.3224 C 17.8867 8.7107 17.8867 7.6962 18.5063 7.0767 L 18.5063 7.0767 z M 49.2887 19.5523 l 23.472 23.472 c 0.6893 0.6893 0.9912 1.6185 0.9216 2.5245 H 20.388 c -0.0774 -0.9061 0.2323 -1.8354 0.9138 -2.5245 l 23.472 -23.472 C 46.0207 18.3133 48.0496 18.3133 49.2887 19.5523 L 49.2887 19.5523 z"/></g></svg>