<?xml version="1.0" encoding="utf-8"?>
<svg version="1.1" id="Layer_1" xmlns="http://www.w3.org/2000/svg"
    xmlns:xlink="http://www.w3.org/1999/xlink" x="0px" y="0px" viewBox="0 0 100 100"
    style="enable-background:new 0 0 100 100" xml:space="preserve">
    <style>
        .font {
            font-family: sans-serif;
          }
    </style>
    <text x="18" y="35" text-anchor="end" dominant-baseline="middle" class="font">1</text>
    <text x="18" y="50" text-anchor="end" dominant-baseline="middle" class="font">2</text>
    <text x="18" y="65" text-anchor="end" dominant-baseline="middle" class="font">3</text>

    <text x="82" y="35" text-anchor="start" dominant-baseline="middle" class="font">1</text>
    <text x="82" y="50" text-anchor="start" dominant-baseline="middle" class="font">2</text>
    <text x="82" y="65" text-anchor="start" dominant-baseline="middle" class="font">3</text>

    <text x="35" y="18" text-anchor="middle" dominant-baseline="end" class="font">1</text>
    <text x="50" y="18" text-anchor="middle" dominant-baseline="end" class="font">2</text>
    <text x="65" y="18" text-anchor="middle" dominant-baseline="end" class="font">3</text>

    <text x="35" y="82" text-anchor="middle" dominant-baseline="hanging" class="font">1</text>
    <text x="50" y="82" text-anchor="middle" dominant-baseline="hanging" class="font">2</text>
    <text x="65" y="82" text-anchor="middle" dominant-baseline="hanging" class="font">3</text>

    <path stroke="#000" fill="none" stroke-width="2" stroke-linecap="round" d="M 20 20 L 20 80 L 80 80 L 80 20 L 20 20 M 35 20 L 35 80 M 50 20 L 50 80 M 65 20 L 65 80 M 20 35 L 80 35 M 20 50 L 80 50 M 20 65 L 80 65" />
        </svg>